# xmcd
#
# Track frame offsets: 
#        150
#        24487
#        39267
#        53199
#        71638
#        87917
#        106161
#
# Disc length: 1647 seconds
#
# Revision: 0
# Processed by: cddbd v1.5.2PL0 Copyright (c) Steve Scherf et al.
# Submitted via: ExactAudioCopy v1.0b1
#
DISCID=50066d07
DTITLE=Beathotel - After The End
DYEAR=1900
DGENRE=Beat
TTITLE0=after the end
TTITLE1=oriental gal
TTITLE2=alone
TTITLE3=yeah
TTITLE4=tat twam asi
TTITLE5=i can see you
TTITLE6=enjoy
EXTD=
EXTT0=
EXTT1=
EXTT2=
EXTT3=
EXTT4=
EXTT5=
EXTT6=
PLAYORDER=
